<svg width="214" height="54" viewBox="0 0 214 54" fill="none" xmlns="http://www.w3.org/2000/svg">
<path d="M50.9684 26.9942C50.9684 26.4806 50.6182 26.0604 50.1395 25.9437C50.1045 25.0216 49.9994 24.1111 49.8593 23.2007C50.303 22.9906 50.5481 22.5003 50.4431 22.0101C50.338 21.5199 49.906 21.1697 49.4273 21.158C49.1939 20.2593 48.9137 19.3838 48.5751 18.5318C48.9604 18.24 49.1005 17.703 48.8903 17.2478C48.7152 16.851 48.3182 16.6058 47.9096 16.6058C47.8512 16.6058 47.7812 16.6058 47.7228 16.6175C47.3142 15.8005 46.8472 15.0067 46.3452 14.2364C46.6604 13.8629 46.6954 13.3143 46.3919 12.9057C46.1817 12.6139 45.8548 12.4622 45.5163 12.4622C45.3762 12.4622 45.2361 12.4855 45.1076 12.5439C44.5706 11.8786 43.9985 11.2366 43.3798 10.618C43.3447 10.5829 43.298 10.5363 43.263 10.5012C43.4965 10.0694 43.4148 9.52077 43.0412 9.18227C42.831 8.99552 42.5742 8.90214 42.3173 8.90214C42.1072 8.90214 41.8854 8.9605 41.7102 9.08889C40.9981 8.50528 40.2509 7.95668 39.4803 7.46645C39.6204 6.99956 39.422 6.48598 38.99 6.22919C38.8149 6.13581 38.6397 6.08912 38.4529 6.08912C38.1611 6.08912 37.8809 6.20584 37.6707 6.41594C36.8535 5.99574 36.0129 5.62223 35.1489 5.2954C35.184 4.81684 34.8921 4.34995 34.4018 4.19821C34.285 4.16319 34.1799 4.13985 34.0749 4.13985C33.7013 4.13985 33.3627 4.32661 33.1642 4.65343C32.2769 4.40831 31.378 4.22155 30.4673 4.08149C30.3973 3.60292 30.012 3.20607 29.51 3.14771C29.4749 3.14771 29.4282 3.14771 29.3932 3.14771C28.9379 3.14771 28.5293 3.43951 28.3775 3.87139C27.9222 3.84804 27.4669 3.8247 26.9999 3.8247C26.5329 3.8247 26.0775 3.83637 25.6222 3.87139C25.4705 3.45118 25.0618 3.14771 24.6065 3.14771C24.5715 3.14771 24.5248 3.14771 24.4898 3.14771C23.9877 3.20607 23.6025 3.59125 23.5324 4.08149C22.6218 4.22155 21.7228 4.40831 20.8355 4.65343C20.637 4.33828 20.2868 4.13985 19.9249 4.13985C19.8198 4.13985 19.7031 4.16319 19.598 4.19821C19.1193 4.34995 18.8274 4.81684 18.8508 5.2954C17.9868 5.62223 17.1462 5.99574 16.329 6.41594C16.1189 6.20584 15.8387 6.08912 15.5468 6.08912C15.36 6.08912 15.1849 6.13581 15.0097 6.22919C14.5661 6.48598 14.3793 6.99956 14.5194 7.46645C13.7489 7.95668 13.0017 8.50528 12.2895 9.08889C12.1027 8.9605 11.8925 8.90214 11.6824 8.90214C11.4255 8.90214 11.1687 8.99552 10.9586 9.18227C10.5966 9.54411 10.5149 10.081 10.7484 10.5129C10.7134 10.5479 10.6667 10.5829 10.6317 10.6296C10.0129 11.2483 9.44081 11.8902 8.90377 12.5556C8.77534 12.4972 8.63525 12.4739 8.49515 12.4739C8.16825 12.4739 7.82968 12.6256 7.61953 12.9174C7.31598 13.3259 7.35101 13.8745 7.66623 14.248C7.15253 15.0184 6.69721 15.8121 6.28859 16.6292C6.23022 16.6175 6.16017 16.6175 6.10179 16.6175C5.69317 16.6175 5.29622 16.851 5.1211 17.2595C4.91095 17.7147 5.06273 18.2516 5.43632 18.5434C5.09775 19.3955 4.81755 20.2709 4.58406 21.1697C4.09371 21.1814 3.67341 21.5315 3.56834 22.0218C3.46327 22.512 3.72011 23.0023 4.15208 23.2124C4.00031 24.1111 3.90691 25.0216 3.87189 25.9553C3.39322 26.0721 3.04297 26.4923 3.04297 27.0058C3.04297 27.5194 3.39322 27.9396 3.87189 28.0563C3.90691 28.9785 4.01199 29.8889 4.15208 30.7993C3.70844 31.0094 3.46327 31.4997 3.56834 31.9899C3.67341 32.4801 4.10538 32.8303 4.58406 32.842C4.81755 33.7291 5.09775 34.6045 5.43632 35.4682C5.05105 35.7601 4.91095 36.297 5.1211 36.7522C5.29622 37.1491 5.69317 37.3942 6.10179 37.3942C6.16017 37.3942 6.23022 37.3942 6.28859 37.3825C6.69721 38.1996 7.16421 39.0049 7.66623 39.7636C7.35101 40.1372 7.31598 40.6858 7.61953 41.0943C7.82968 41.3861 8.15658 41.5378 8.49515 41.5378C8.63525 41.5378 8.77534 41.5145 8.90377 41.4561C9.44081 42.1214 10.0129 42.7634 10.6317 43.382C10.6667 43.4171 10.7134 43.4638 10.7484 43.4988C10.5149 43.9306 10.5966 44.4792 10.9702 44.8177C11.1804 45.0045 11.4372 45.0979 11.6941 45.0979C11.9042 45.0979 12.126 45.0395 12.3012 44.9111C13.0133 45.4947 13.7605 46.0433 14.5311 46.5336C14.391 47.0005 14.5894 47.514 15.0214 47.7708C15.1965 47.8642 15.3717 47.9109 15.5585 47.9109C15.8503 47.9109 16.1305 47.7942 16.3407 47.5841C17.1579 48.0043 17.9985 48.3778 18.8625 48.7046C18.8274 49.1832 19.1193 49.6501 19.6097 49.8018C19.7264 49.8368 19.8315 49.8602 19.9366 49.8602C20.3101 49.8602 20.6487 49.6734 20.8472 49.3583C21.7345 49.6034 22.6335 49.7901 23.5441 49.9302C23.6141 50.4088 23.9994 50.8056 24.5014 50.864C24.5365 50.864 24.5832 50.864 24.6182 50.864C25.0735 50.864 25.4821 50.5722 25.6339 50.1403C26.0892 50.1636 26.5445 50.187 27.0115 50.187C27.4785 50.187 27.9339 50.1753 28.3892 50.1403C28.541 50.5605 28.9496 50.864 29.4049 50.864C29.4399 50.864 29.4866 50.864 29.5216 50.864C30.0237 50.8056 30.4089 50.4204 30.479 49.9302C31.3896 49.7901 32.2886 49.6034 33.1759 49.3583C33.3744 49.6734 33.7246 49.8602 34.0865 49.8602C34.1916 49.8602 34.3084 49.8368 34.4134 49.8018C34.8921 49.6501 35.184 49.1832 35.1606 48.7046C36.0246 48.3778 36.8652 48.0043 37.6824 47.5841C37.8926 47.7942 38.1727 47.9109 38.4646 47.9109C38.6514 47.9109 38.8265 47.8642 39.0017 47.7708C39.4453 47.514 39.6321 47.0005 39.492 46.5336C40.2626 46.0433 41.0097 45.4947 41.7219 44.9111C41.9087 45.0395 42.1189 45.0979 42.329 45.0979C42.5859 45.0979 42.8427 45.0045 43.0529 44.8177C43.4265 44.4792 43.5082 43.9306 43.2747 43.4988C43.3097 43.4638 43.3564 43.4171 43.3914 43.382C44.0102 42.7634 44.5823 42.1214 45.1193 41.4561C45.2477 41.5145 45.3878 41.5378 45.5279 41.5378C45.8548 41.5378 46.1934 41.3861 46.4035 41.0943C46.7071 40.6858 46.6721 40.1372 46.3569 39.7636C46.8705 38.9933 47.3259 38.1996 47.7345 37.3825C47.7929 37.3942 47.8629 37.3942 47.9213 37.3942C48.3299 37.3942 48.7269 37.1607 48.902 36.7522C49.1121 36.2853 48.9604 35.7601 48.5868 35.4682C48.9253 34.6162 49.2055 33.7407 49.439 32.842C49.9294 32.8303 50.3497 32.4801 50.4547 31.9899C50.5598 31.4997 50.303 31.0094 49.871 30.7993C50.0228 29.9006 50.1162 28.9901 50.1512 28.0563C50.6182 27.928 50.9684 27.5078 50.9684 26.9942ZM47.9096 18.7769C48.0147 18.7769 48.1314 18.7652 48.2365 18.7185C48.5517 19.5356 48.8203 20.3643 49.0421 21.2164C48.6101 21.3565 48.3182 21.765 48.3066 22.2085L41.7453 23.6092C41.6635 23.5625 41.5701 23.5392 41.43 23.5392H41.3833C41.36 23.5392 41.3366 23.5392 41.3016 23.5392C41.1732 23.5392 41.0448 23.5275 40.9047 23.5158C40.7646 23.5042 40.6128 23.4925 40.461 23.4925C40.2042 23.4925 39.8306 23.5275 39.4687 23.796C39.2819 23.5975 39.0367 23.5042 38.7331 23.5042C38.6514 23.5042 38.5697 23.5042 38.4763 23.5275C38.5697 22.9672 38.2778 22.6521 37.9509 22.4186L47.0457 18.3684C47.2675 18.6251 47.5827 18.7769 47.9096 18.7769ZM45.5163 14.6332C45.7031 14.6332 45.8782 14.5865 46.0416 14.4932C46.532 15.2285 46.9639 15.9872 47.3609 16.7693C46.9639 17.0027 46.7655 17.4462 46.8355 17.8898L37.4956 22.0451C37.4723 22.0218 37.4489 21.9984 37.4256 21.9868C37.3322 21.8934 37.2388 21.8117 37.1454 21.7183C36.9235 21.5199 36.7718 21.2631 36.6083 20.9829C36.5266 20.8312 36.4332 20.6795 36.3398 20.5394L44.8041 14.3881C45.0142 14.5398 45.2711 14.6332 45.5163 14.6332ZM41.8036 10.9448C41.9671 11.0265 42.1305 11.0732 42.3057 11.0732C42.5625 11.0732 42.8077 10.9798 43.0178 10.8047C43.0412 10.8281 43.0762 10.8631 43.1112 10.8864C43.7066 11.4817 44.267 12.1003 44.7807 12.754C44.4422 13.0575 44.3488 13.5477 44.5122 13.9562L36.0129 20.1309C35.5926 19.6757 35.3124 19.1387 35.0205 18.5785C35.0088 18.5551 34.9972 18.5318 34.9855 18.5201L41.8036 10.9448ZM38.4413 8.26016C38.7798 8.26016 39.1067 8.10842 39.3052 7.81662C40.0407 8.28351 40.7529 8.80876 41.43 9.36903C41.1732 9.74254 41.1732 10.2328 41.4184 10.5946L34.7286 18.0299C34.7286 18.0182 34.717 18.0065 34.717 18.0065C34.6119 17.8198 34.4952 17.633 34.3784 17.4462C34.1216 17.0377 33.8764 16.6409 33.7246 16.1973C33.7013 16.1273 33.6662 16.0689 33.6429 16.0106L38.1377 8.22515C38.2428 8.24849 38.3479 8.27184 38.4413 8.26016ZM34.0749 6.32256C34.4952 6.32256 34.8804 6.07745 35.0555 5.68059C35.8728 5.99574 36.6784 6.34591 37.4606 6.75444C37.2738 7.17464 37.3789 7.6532 37.7057 7.96836L33.5261 15.2052C33.5028 15.1468 33.4794 15.1001 33.4444 15.0534C33.351 14.925 33.1992 14.855 33.0475 14.855C32.9657 14.855 32.8723 14.8783 32.8023 14.925C32.6622 15.0067 32.5454 15.0418 32.4754 15.0418C32.4404 15.0418 32.3703 15.0418 32.2652 14.9017C32.1952 14.8083 32.0901 14.7733 31.9617 14.7733C31.9267 14.7733 31.8916 14.7733 31.8683 14.7733H31.8566C31.7048 14.785 31.5648 14.7966 31.4363 14.7966C31.378 14.7966 31.3196 14.7966 31.2612 14.7966L34.0165 6.33424C34.0165 6.32257 34.0515 6.32256 34.0749 6.32256ZM29.545 5.31875C29.9886 5.26039 30.3506 4.93356 30.4556 4.49002C31.3313 4.61841 32.1835 4.80517 33.0241 5.02694C32.9307 5.47049 33.1292 5.92571 33.5145 6.15915L30.7242 14.7266C30.3155 14.6566 29.9419 14.5048 29.58 14.2831C29.3699 14.1547 29.1597 14.0846 28.9496 14.0846C28.8328 14.0846 28.7161 14.108 28.611 14.143L29.545 5.31875ZM25.6923 4.26824C26.1242 4.2449 26.5679 4.23323 26.9999 4.23323C27.4435 4.23323 27.8755 4.2449 28.3075 4.26824C28.3191 4.72346 28.5993 5.12032 29.0196 5.27206L28.0389 14.6099C27.9455 14.7383 27.8638 14.89 27.8054 15.0651C27.7471 15.2285 27.6887 15.2285 27.642 15.2285C27.6186 15.2285 27.5953 15.2285 27.5719 15.2168C27.3151 15.1702 27.1166 15.1118 26.9415 14.9834C26.8714 14.9367 26.8131 14.89 26.743 14.8433C26.4862 14.6566 26.2293 14.4698 25.9375 14.3297L24.9801 5.26039C25.4004 5.10865 25.6806 4.71179 25.6923 4.26824ZM20.9873 5.02694C21.8279 4.7935 22.6918 4.61841 23.5558 4.49002C23.6492 4.93356 24.0228 5.26039 24.4664 5.31875L25.4004 14.1547C25.3537 14.143 25.2953 14.1313 25.2486 14.1313C25.0735 14.108 24.8634 13.9796 24.6649 13.8395C24.6182 13.8162 24.5715 13.7812 24.5365 13.7578C24.6766 13.6294 24.7466 13.501 24.77 13.396C24.8167 13.2092 24.7816 12.9874 24.6649 12.8007C24.5832 12.6723 24.338 12.2638 23.7893 12.2638C23.7659 12.2638 23.7426 12.2638 23.7192 12.2638C23.4507 12.2754 23.1472 12.2871 22.7852 12.2871C22.6918 12.2871 22.5868 12.2871 22.4934 12.2871L20.5086 6.15915C20.8822 5.92571 21.0807 5.47049 20.9873 5.02694ZM16.5508 6.75444C17.333 6.34591 18.1269 5.99574 18.9442 5.68059C19.1193 6.07745 19.5046 6.32256 19.9249 6.32256C19.9482 6.32256 19.9832 6.32256 20.0066 6.32256L21.9446 12.2871C21.7929 12.2871 21.6294 12.2871 21.4776 12.2871C21.4193 12.2871 21.3609 12.2871 21.3025 12.2871C21.2325 12.2871 21.1624 12.2871 21.0924 12.2871C20.7304 12.2871 20.4502 12.3104 20.2751 12.4505C20.1467 12.5439 19.9949 12.5906 19.8198 12.6256C19.6097 12.6723 19.3762 12.7423 19.166 12.9057L16.3173 7.98003C16.6326 7.6532 16.7376 7.17464 16.5508 6.75444ZM14.6945 7.82829C14.9047 8.10842 15.2316 8.27184 15.5585 8.27184C15.6635 8.27184 15.7569 8.26016 15.862 8.22515L18.3838 12.6023C18.2203 12.6023 17.9985 12.6606 17.8 12.9291C17.6249 13.1625 17.4381 13.3843 17.2396 13.6061C17.0062 13.8745 16.761 14.1547 16.5508 14.4581C16.4808 14.5632 16.4107 14.6682 16.329 14.7616L12.593 10.6063C12.8382 10.2328 12.8499 9.74254 12.5814 9.3807C13.2585 8.82043 13.959 8.29518 14.6945 7.82829ZM10.9002 10.8981C10.9235 10.8748 10.9586 10.8397 10.9936 10.8164C11.192 10.9915 11.4489 11.0849 11.7057 11.0849C11.8809 11.0849 12.056 11.0382 12.2194 10.9565L15.9904 15.1468C15.8153 15.2985 15.6285 15.4269 15.4067 15.4736C14.5661 15.6721 14.1108 16.2207 13.8072 16.6642C13.7489 16.7576 13.6788 16.851 13.6204 16.9443L9.51086 13.9562C9.67431 13.5477 9.58091 13.0691 9.24234 12.754C9.74436 12.112 10.3048 11.4934 10.9002 10.8981ZM7.9581 14.4932C8.12155 14.5865 8.30835 14.6332 8.48347 14.6332C8.74032 14.6332 8.98549 14.5398 9.18397 14.3764L13.3286 17.3879C13.1184 17.7147 12.9083 18.0182 12.6047 18.2516C12.2895 18.4968 12.3362 18.8703 12.3595 19.0103C12.3829 19.1621 12.4062 19.3138 12.4296 19.4539C12.488 19.7457 12.5347 20.0025 12.5113 20.2709L7.15253 17.8898C7.23426 17.4462 7.02411 16.991 6.62716 16.7693C7.03578 15.9755 7.47943 15.2168 7.9581 14.4932ZM5.7749 18.7185C5.87997 18.7535 5.99672 18.7769 6.10179 18.7769C6.42869 18.7769 6.74391 18.6251 6.95406 18.3567L12.4062 20.7845C12.4062 20.8079 12.3946 20.8312 12.3946 20.8429C12.3595 21.0413 12.3362 21.2164 12.2428 21.3331C11.9509 21.695 11.9976 22.0685 12.0443 22.3719C12.0677 22.5587 12.091 22.7104 12.0326 22.8388C11.9392 23.0606 12.126 23.2124 12.2078 23.2824C12.2311 23.3057 12.2661 23.3291 12.2778 23.3407C12.3712 23.4458 12.4646 23.5625 12.558 23.6676L5.69317 22.2085C5.6815 21.765 5.38962 21.3681 4.95765 21.2164C5.19115 20.376 5.45967 19.5356 5.7749 18.7185ZM4.52568 23.3174C4.56071 23.3174 4.59573 23.3174 4.63076 23.3174C5.03938 23.3174 5.42465 23.084 5.59977 22.7104L13.1067 24.3095C13.1768 24.4029 13.2352 24.508 13.2819 24.613C13.2935 24.648 13.3169 24.6831 13.3286 24.7297C13.492 25.0799 13.6555 25.4418 13.994 25.6869C14.3559 25.9553 14.6712 26.2705 15.0097 26.609C15.0448 26.6557 15.0915 26.6907 15.1265 26.7257L15.1382 26.7374H5.1678C5.06273 26.3055 4.7008 25.9787 4.24548 25.9203C4.29218 25.0449 4.38558 24.1695 4.52568 23.3174ZM4.52568 30.6826C4.38558 29.8189 4.29218 28.9551 4.25716 28.068C4.7008 28.0213 5.0744 27.6828 5.17948 27.251H23.3456C23.3923 27.2626 23.404 27.286 23.404 27.286C23.404 27.286 23.4273 27.3327 23.3923 27.4727C23.3923 27.4844 23.3806 27.4961 23.3806 27.5078L5.5881 31.2896C5.41297 30.9161 5.0277 30.6826 4.61908 30.6826C4.59573 30.6826 4.56071 30.6826 4.52568 30.6826ZM19.2711 26.7374C19.2711 26.7374 19.2944 26.5973 19.5513 26.4689C19.598 26.4456 19.633 26.4222 19.6797 26.3989C19.8665 26.2938 20.065 26.1888 20.2518 26.1888C20.3101 26.1888 20.3685 26.2005 20.4269 26.2238L20.4502 26.2355H20.4736C20.532 26.2471 20.602 26.2588 20.6837 26.2588C20.7421 26.2588 20.7888 26.2588 20.8472 26.2471C20.8939 26.2471 20.9406 26.2471 20.9756 26.2471C21.104 26.2471 21.1274 26.2705 21.1507 26.3055C21.2908 26.4806 21.4309 26.6207 21.5944 26.7374H19.2711ZM6.10179 35.2231C5.99672 35.2231 5.87997 35.2348 5.7749 35.2815C5.45967 34.4644 5.19115 33.6357 4.96933 32.7836C5.4013 32.6436 5.69317 32.235 5.70485 31.7915L23.3106 28.0447C23.3223 28.0914 23.3456 28.1381 23.3806 28.1847C23.404 28.2198 23.439 28.2548 23.4507 28.3015L6.95406 35.6433C6.74391 35.3749 6.42869 35.2231 6.10179 35.2231ZM8.49515 39.3668C8.32002 39.3668 8.13323 39.4135 7.96978 39.5069C7.47943 38.7715 7.04746 38.0128 6.65051 37.2308C7.04746 36.9973 7.24593 36.5538 7.17588 36.1102L23.3923 28.8851C23.3573 28.9434 23.3223 29.0018 23.2872 29.0718C23.1938 29.2236 23.1355 29.3753 23.1238 29.5037L9.18397 39.6236C8.99717 39.4602 8.74032 39.3668 8.49515 39.3668ZM12.2078 43.0552C12.0443 42.9735 11.8692 42.9268 11.6941 42.9268C11.4372 42.9268 11.1804 43.0202 10.9819 43.1953C10.9586 43.1719 10.9235 43.1369 10.8885 43.1136C10.2931 42.5183 9.73269 41.8997 9.21899 41.246C9.55756 40.9425 9.65096 40.4523 9.48751 40.0438L23.2522 30.0406C23.3106 30.1223 23.3806 30.1924 23.4507 30.2507C23.5091 30.2974 23.5558 30.3441 23.6141 30.3908L12.2078 43.0552ZM15.5585 45.7282C15.2199 45.7282 14.893 45.8799 14.6945 46.1717C13.959 45.7048 13.2585 45.1796 12.5697 44.6193C12.8265 44.2458 12.8265 43.7556 12.5814 43.3937L23.9644 30.7526C24.0811 30.8927 24.1862 31.0328 24.2796 31.1962L15.862 45.7749C15.7686 45.7515 15.6635 45.7282 15.5585 45.7282ZM19.9366 47.6774C19.5163 47.6774 19.131 47.9226 18.9559 48.3194C18.1386 48.0159 17.333 47.6541 16.5625 47.2456C16.7493 46.8254 16.6442 46.3468 16.3173 46.0317L24.5715 31.7331C24.6415 31.8849 24.6999 32.0483 24.7466 32.2117C24.7933 32.3634 24.8167 32.5268 24.8517 32.6902C24.8517 32.7136 24.8634 32.7253 24.8634 32.7486L20.0183 47.6658C19.9832 47.6774 19.9599 47.6774 19.9366 47.6774ZM24.4664 48.6813C24.0228 48.7396 23.6608 49.0664 23.5558 49.51C22.6802 49.3816 21.8279 49.1948 20.9873 48.9731C21.0807 48.5295 20.8822 48.0743 20.4969 47.8409L25.1202 33.6124C25.3771 34.1259 25.2953 34.5461 24.8167 35.1297C24.1979 35.8768 24.1629 36.5304 24.6999 37.4409C24.77 37.5693 24.84 37.686 24.9217 37.8144C25.1319 38.1645 25.342 38.5147 25.5055 38.8765L24.4664 48.6813ZM28.3191 49.7318C27.8872 49.7551 27.4435 49.7668 27.0115 49.7668C26.5679 49.7668 26.1359 49.7551 25.704 49.7318C25.704 49.2766 25.4121 48.8797 24.9918 48.728L25.8791 40.3356C25.9608 40.9659 26.2293 41.5378 26.708 42.0981L26.7197 42.1098C27.0466 42.4833 27.3735 42.8801 27.3151 43.3937C27.2684 43.7439 27.3384 44.024 27.5136 44.2225C27.6303 44.3508 27.8521 44.5026 28.2374 44.5026C28.2841 44.5026 28.3308 44.5026 28.3658 44.4909C28.4359 44.4909 28.5176 44.4792 28.5877 44.4792L29.0313 48.728C28.611 48.8914 28.3191 49.2882 28.3191 49.7318ZM28.9963 44.0007L28.5526 44.024C28.4709 44.024 28.4009 44.0357 28.3191 44.0357C28.2841 44.0357 28.2491 44.0357 28.2257 44.0357C28.0506 44.0357 27.9222 43.989 27.8521 43.9073C27.7704 43.8139 27.7354 43.6622 27.7587 43.4521C27.8405 42.7401 27.4085 42.2265 27.0582 41.8063L27.0466 41.7946C26.6263 41.3044 26.3928 40.8141 26.3227 40.2772C26.3227 40.2656 26.3227 40.2655 26.3227 40.2539L25.6339 38.0945C25.6339 38.0828 25.6222 38.0712 25.6222 38.0712C25.5288 37.8961 25.4238 37.721 25.3187 37.5576C25.2486 37.4409 25.1786 37.3125 25.1085 37.1957C24.6766 36.4487 24.6999 36.0052 25.1903 35.4099C25.6106 34.8963 25.9841 34.2543 25.5522 33.3906L25.307 32.912V32.9003L25.342 32.7953L25.3187 32.6786V32.6552L25.307 32.6202C25.272 32.4451 25.2486 32.2584 25.1903 32.0716C25.1319 31.8965 25.0735 31.7214 24.9918 31.5464C24.9918 31.5464 24.9918 31.5347 24.9801 31.5347L24.5715 30.7877C24.5715 30.7877 24.5715 30.776 24.5598 30.776C24.4781 30.6593 24.3964 30.5542 24.3146 30.4492L24.2446 30.3558L24.2563 30.3441L24.1395 30.2391L24.1278 30.2274L23.9761 30.0406L23.9527 30.064L23.9177 30.029C23.8593 29.9706 23.8009 29.9239 23.7426 29.8772C23.6959 29.8422 23.6608 29.7955 23.6258 29.7605L23.5558 29.6671L23.5674 29.5621C23.5791 29.492 23.6025 29.4103 23.6608 29.3286C23.7075 29.2586 23.7426 29.2002 23.7776 29.1419C23.7893 29.1302 23.7893 29.1069 23.7893 29.0952L23.8943 28.1614L23.8593 28.103C23.8243 28.033 23.7893 27.9746 23.7426 27.9163L23.7309 27.9046L23.7192 27.8813L23.7893 27.6712C23.8009 27.6478 23.8009 27.6245 23.8126 27.6011C23.836 27.5077 23.906 27.251 23.7542 27.0409C23.6959 26.9475 23.5908 26.8774 23.4624 26.8308L23.3923 26.8074H22.505C22.4817 26.8074 22.4467 26.7957 22.4233 26.7841L21.8396 26.3755C21.7111 26.2822 21.6061 26.1771 21.501 26.0487C21.3375 25.8269 21.104 25.8036 20.9523 25.8036C20.9056 25.8036 20.8472 25.8036 20.8005 25.8036C20.7538 25.8036 20.7071 25.8036 20.6721 25.8036C20.637 25.8036 20.602 25.8036 20.567 25.7919C20.4619 25.7569 20.3452 25.7336 20.2284 25.7336C19.9249 25.7336 19.6564 25.8736 19.4345 25.9904C19.3995 26.0137 19.3528 26.037 19.3178 26.0487C19.1427 26.1421 18.8274 26.574 18.7107 26.7257C18.6873 26.7607 18.6406 26.7841 18.5939 26.7841H15.8854C15.8503 26.7841 15.8153 26.7724 15.792 26.7491L15.43 26.3989L15.4184 26.3872L15.3016 26.2705C14.9514 25.9203 14.6361 25.5935 14.2392 25.3017C14.0057 25.1266 13.8656 24.8348 13.7255 24.5196C13.7022 24.4846 13.6905 24.4379 13.6671 24.4029C13.6555 24.3913 13.6555 24.3796 13.6438 24.3679L12.8849 23.3524C12.8849 23.3524 12.8849 23.3524 12.8732 23.3407C12.7915 23.2474 12.6981 23.1423 12.6164 23.0373V23.0256V23.0139C12.5814 22.9789 12.5347 22.9439 12.4763 22.8972C12.5347 22.6871 12.4996 22.477 12.4763 22.2902C12.4413 21.9984 12.4179 21.8 12.5814 21.6133C12.7448 21.4032 12.7915 21.1464 12.8382 20.9129L12.955 20.2943C12.99 19.9558 12.9316 19.6406 12.8732 19.3372C12.8499 19.1971 12.8149 19.0687 12.8032 18.9286C12.7798 18.7419 12.8032 18.6485 12.8732 18.5901C13.2352 18.31 13.492 17.9482 13.7022 17.6097L13.9357 17.2361L13.9824 17.1661C14.029 17.0844 14.0991 16.991 14.1575 16.8976C14.426 16.4891 14.7996 16.0572 15.4767 15.8938C15.7569 15.8238 16.0255 15.6837 16.2706 15.462L16.3057 15.4269L16.329 15.4503L16.4574 15.2869C16.4574 15.2752 16.4691 15.2752 16.4691 15.2635L16.6092 15.1351L16.5859 15.1118L16.6676 15.0067C16.7376 14.9134 16.8077 14.8083 16.9011 14.6916C17.0995 14.4115 17.333 14.143 17.5665 13.8862C17.7767 13.6528 17.9752 13.431 18.1503 13.1742C18.2554 13.0341 18.3371 13.0341 18.3604 13.0341H18.6873L18.7224 13.0925L18.9092 13.4193C18.9559 13.4893 19.0493 13.5127 19.1193 13.4543L19.4112 13.2209C19.5396 13.1158 19.7147 13.0808 19.8899 13.0341C20.1 12.9874 20.3218 12.9291 20.5203 12.7773C20.5787 12.7306 20.7655 12.7073 21.0573 12.7073C21.1274 12.7073 21.1974 12.7073 21.2675 12.7073C21.3259 12.7073 21.3842 12.7073 21.4426 12.7073C21.5944 12.7073 21.7578 12.7073 21.9096 12.7073H22.1198H22.3299H22.5634H22.7502C23.1238 12.7073 23.4273 12.6956 23.7075 12.684H23.7426C23.9877 12.684 24.1162 12.8357 24.2212 12.9874C24.2679 13.0691 24.2913 13.1625 24.2679 13.2209C24.2563 13.2676 24.2329 13.3026 24.1862 13.3493L23.8476 13.6411C23.7776 13.6994 23.7893 13.8162 23.8593 13.8629L24.2329 14.0963C24.2796 14.1196 24.3146 14.1547 24.3613 14.178C24.5948 14.3297 24.8634 14.5048 25.1436 14.5398C25.1786 14.5398 25.2136 14.5515 25.2603 14.5632L25.4588 14.5982C25.4705 14.5982 25.4821 14.5982 25.4938 14.6099L25.6923 14.7033C25.9491 14.82 26.1826 14.9951 26.4161 15.1702C26.4862 15.2168 26.5445 15.2635 26.6146 15.3102C26.8714 15.4853 27.1516 15.567 27.4318 15.6137C27.4902 15.6254 27.5486 15.6254 27.5953 15.6254C27.7938 15.6254 28.0623 15.5437 28.2024 15.1585C28.2491 15.0301 28.3075 14.9134 28.3775 14.82L28.4476 14.7149L28.4592 14.6332L28.7161 14.5398C28.7745 14.5165 28.8328 14.5048 28.8912 14.5048C29.0079 14.5048 29.1364 14.5515 29.2765 14.6216C29.6851 14.8783 30.1054 15.0418 30.5724 15.1235L30.8643 15.1702C30.8643 15.1702 30.8759 15.1702 30.8876 15.1702H31.0044L31.1912 15.1818C31.2495 15.1818 31.3196 15.1818 31.3896 15.1818C31.5414 15.1818 31.6932 15.1818 31.8566 15.1585H31.8683C31.88 15.1585 31.8917 15.1585 31.9033 15.1585C32.0668 15.3452 32.2419 15.4269 32.4404 15.4269C32.6038 15.4269 32.7673 15.3686 32.9891 15.2519C33.0008 15.2519 33.0008 15.2519 33.0124 15.2519C33.0241 15.2519 33.0358 15.2519 33.0358 15.2635C33.0358 15.2635 33.0358 15.2635 33.0358 15.2752L33.1642 15.6837C33.1759 15.7187 33.1759 15.7654 33.1525 15.8005L33.1175 15.8588C33.0942 15.8938 33.0942 15.9522 33.1175 15.9872L33.1992 16.139C33.2226 16.174 33.2343 16.2207 33.2576 16.2673C33.4327 16.7576 33.6896 17.1778 33.9581 17.6097C34.0632 17.7847 34.1799 17.9715 34.285 18.1466V18.1583L34.2967 18.1816L34.4018 18.3684L34.5535 18.6602L34.5769 18.6952L34.5886 18.7302C34.8921 19.3255 35.184 19.8858 35.651 20.3877L35.8611 20.6211L35.8728 20.6328L35.9428 20.7262C36.0362 20.8546 36.118 21.0063 36.1997 21.1347C36.3748 21.4382 36.5499 21.7533 36.8418 21.9868C36.9235 22.0568 36.9936 22.1268 37.0753 22.1969L37.087 22.2085L37.6824 22.7104C37.9743 22.9205 38.056 23.084 38.0093 23.3641L37.9392 23.796C37.9276 23.8893 38.0093 23.9711 38.1027 23.9594L38.5463 23.901C38.6164 23.8893 38.6864 23.8893 38.7448 23.8893C38.9783 23.8893 39.0834 23.9711 39.1418 24.0411L39.3402 24.2629C39.3869 24.3212 39.4687 24.3212 39.527 24.2745L39.7605 24.0994C40.0057 23.9127 40.2626 23.8893 40.461 23.8893C40.5895 23.8893 40.7295 23.901 40.8696 23.9127C41.0097 23.9244 41.1615 23.936 41.3016 23.936C41.3366 23.936 41.3717 23.936 41.395 23.936H41.4184C41.4767 23.936 41.5118 23.9477 41.5118 23.9477H41.5234V23.9827C41.5234 24.0177 41.5118 24.0644 41.4884 24.1111C41.2082 24.9048 40.8346 25.6869 40.4027 26.4339L40.2392 26.714L40.0991 26.9358L40.0874 26.9592L40.0758 26.9708C39.9006 27.251 39.6204 27.4844 39.3169 27.7295C39.2468 27.7879 39.1885 27.8346 39.1184 27.8929C38.7915 28.1731 38.4763 28.4766 38.1844 28.7917L37.6357 29.3987L37.6707 29.4103C37.4489 29.6905 37.2388 29.9939 37.052 30.2974C36.9936 30.3908 36.9235 30.4959 36.8535 30.5892C36.7718 30.6943 36.7134 30.7877 36.655 30.8694L36.585 30.9744C36.5616 30.9627 36.5499 30.9627 36.5266 30.9627C36.4449 30.9627 36.3865 31.0328 36.3865 31.1145L36.3982 31.2779V31.3596L36.4098 31.6514C36.4098 31.6864 36.4098 31.7214 36.4215 31.7565C36.5032 32.3634 36.6083 32.947 36.9586 33.4606C37.0636 33.6124 37.0987 33.7874 37.0636 33.9042C37.052 33.9275 37.052 33.9508 37.0403 33.9742L36.9352 34.4061V34.4177L36.9469 34.8496C36.9469 34.8963 36.9469 34.9547 36.9586 35.0014C36.9702 35.1998 36.9819 35.3865 36.9586 35.5733C36.9235 35.9351 36.5733 36.3086 36.1763 36.4137H36.1647L35.8845 36.4837L35.8494 36.4954L35.4992 36.6822C35.0906 36.9039 34.717 37.2308 34.4018 37.6393C34.3667 37.686 34.3317 37.7327 34.32 37.791L34.25 37.9661C34.2383 38.0128 34.2383 38.0712 34.2733 38.1062L34.4018 38.2579C34.4601 38.328 34.4601 38.3863 34.4485 38.5264C34.4485 38.5847 34.4485 38.6548 34.4485 38.7248C34.4835 39.0867 34.4485 39.3668 34.3317 39.5652L34.2617 39.6819C34.25 39.6936 34.2383 39.717 34.2266 39.7286L34.1099 39.8103C33.9931 39.892 33.8414 39.9621 33.6662 40.0088C33.2226 40.1255 32.9657 40.6507 33.0591 41.0359C33.1876 41.6195 32.9074 41.9113 32.4404 42.3432C32.3586 42.4133 32.2886 42.4716 32.2185 42.5416C32.2069 42.5533 32.2069 42.5533 32.1952 42.565L32.1718 42.5883L31.9967 42.7517L31.985 42.7634L31.7866 42.9035C31.2028 43.3237 30.5257 43.5688 29.8952 43.7789C29.5917 43.884 29.3115 43.9073 29.078 43.9306L28.9963 44.0007ZM33.0241 48.9731C32.1835 49.2065 31.3196 49.3816 30.4556 49.51C30.3622 49.0664 29.9886 48.7396 29.545 48.6813L29.1013 44.4559C29.3932 44.4326 29.7084 44.3975 30.0353 44.2808C30.7242 44.0474 31.4247 43.7906 32.0551 43.3354L33.5145 47.8292C33.1292 48.0743 32.9307 48.5295 33.0241 48.9731ZM37.4606 47.2456C36.6784 47.6541 35.8845 48.0043 35.0555 48.3194C34.8804 47.9226 34.4952 47.6774 34.0749 47.6774C34.0515 47.6774 34.0165 47.6774 33.9931 47.6774L32.4754 42.9969C32.4987 42.9735 32.5104 42.9618 32.5338 42.9502C32.5921 42.8918 32.6622 42.8218 32.7439 42.7634C33.1759 42.3782 33.7013 41.8997 33.5145 41.0126C33.4794 40.8492 33.6079 40.5807 33.7947 40.534C34.0282 40.4757 34.2266 40.3823 34.3901 40.2772L37.7174 46.0433C37.3789 46.3468 37.2738 46.8254 37.4606 47.2456ZM39.3169 46.1717C39.1067 45.8916 38.7798 45.7282 38.4529 45.7282C38.3479 45.7282 38.2545 45.7398 38.1494 45.7749L34.7403 39.8804C34.9154 39.5886 34.9738 39.215 34.9271 38.7482C34.9271 38.7131 34.9271 38.6664 34.9271 38.6198C34.9388 38.468 34.9388 38.2346 34.7637 38.0245C34.7637 38.0128 34.7753 38.0011 34.787 37.9895C35.0789 37.6043 35.4175 37.3125 35.7911 37.1257L41.43 43.3937C41.1849 43.7556 41.1732 44.2575 41.4417 44.6193C40.7529 45.1796 40.0524 45.7048 39.3169 46.1717ZM43.1112 43.1019C43.0879 43.1253 43.0529 43.1603 43.0178 43.1836C42.8194 43.0085 42.5625 42.9152 42.3057 42.9152C42.1305 42.9152 41.9554 42.9618 41.792 43.0436L36.2814 36.9273C36.2814 36.9273 36.2814 36.9273 36.2931 36.9273C36.8885 36.7639 37.3789 36.2269 37.4256 35.6783C37.4489 35.4566 37.4372 35.2465 37.4256 35.0364C37.4256 34.9897 37.4256 34.9313 37.4256 34.8846L44.5122 40.0321C44.3488 40.4406 44.4422 40.9192 44.7807 41.2344C44.267 41.888 43.7066 42.5066 43.1112 43.1019ZM46.0416 39.5069C45.8782 39.4135 45.6914 39.3668 45.5163 39.3668C45.2711 39.3668 45.0142 39.4602 44.8158 39.6236L37.4606 34.2777C37.4723 34.2193 37.4839 34.1726 37.5073 34.1143C37.6007 33.8575 37.5423 33.5306 37.3555 33.2505C37.0636 32.8186 36.9819 32.3167 36.9002 31.7448C36.9002 31.7214 36.9002 31.6981 36.8885 31.6864L46.8472 36.1219C46.7655 36.5654 46.9756 37.0207 47.3726 37.2424C46.9756 38.0245 46.532 38.7832 46.0416 39.5069ZM48.2365 35.2815C48.1314 35.2465 48.0147 35.2231 47.9096 35.2231C47.5827 35.2231 47.2675 35.3749 47.0573 35.6433L37.0636 31.1962C37.1103 31.1262 37.157 31.0561 37.2154 30.9744C37.2855 30.881 37.3555 30.7877 37.4256 30.6826C37.659 30.3208 37.9042 29.9706 38.1611 29.6438L48.3066 31.8031C48.3182 32.2467 48.6101 32.6436 49.0421 32.7953C48.8203 33.624 48.5517 34.4644 48.2365 35.2815ZM49.4857 30.6826C49.4507 30.6826 49.4157 30.6826 49.3806 30.6826C48.972 30.6826 48.5868 30.9161 48.4116 31.2896L38.5463 29.1886C38.8265 28.8851 39.1184 28.5933 39.4453 28.3248C39.5037 28.2664 39.5737 28.2198 39.6321 28.1614C39.9473 27.9046 40.2626 27.6478 40.4844 27.2977C40.4961 27.286 40.5077 27.2743 40.5077 27.251H48.8436C48.9487 27.6828 49.3106 28.0097 49.7659 28.068C49.7192 28.9551 49.6258 29.8189 49.4857 30.6826ZM48.8436 26.7374H40.8229C41.2666 25.967 41.6402 25.1616 41.9437 24.3329C41.9788 24.2395 42.0021 24.1461 42.0021 24.0644L48.4233 22.6988C48.5984 23.0723 48.9837 23.3057 49.3923 23.3057C49.4273 23.3057 49.4624 23.3057 49.4974 23.3057C49.6375 24.1695 49.7309 25.0332 49.7659 25.9203C49.3106 25.9787 48.9487 26.3055 48.8436 26.7374Z" fill="white"/>
<path d="M50.9686 16.8743C49.661 13.7811 47.7813 11.0031 45.3996 8.61033C43.0063 6.21751 40.2277 4.34994 37.1338 3.04265C33.9232 1.68866 30.5141 1 27 1C23.4859 1 20.0885 1.68866 16.8779 3.04265C13.784 4.34994 11.0054 6.22918 8.62371 8.61033C6.23036 11.0031 4.3507 13.7811 3.04311 16.8743C1.68882 20.0842 1 23.4925 1 26.9942C1 30.4958 1.68882 33.9158 3.04311 37.1257C4.3507 40.2189 6.23035 42.9969 8.61203 45.3897C11.0054 47.7825 13.784 49.6501 16.8779 50.9574C20.0885 52.3113 23.4859 53 27 53C30.5141 53 33.9115 52.3113 37.1221 50.9574C40.216 49.6501 42.9946 47.7708 45.388 45.3897C47.7813 42.9969 49.6493 40.2189 50.9569 37.1257C52.3112 33.9158 53 30.5192 53 27.0058C53 23.4925 52.3229 20.0842 50.9686 16.8743ZM50.5366 36.9389C49.2524 39.9737 47.4077 42.7051 45.0611 45.0512C42.7144 47.3973 39.9825 49.2415 36.947 50.5255C33.7948 51.8561 30.4558 52.5331 27.0117 52.5331C23.5676 52.5331 20.2169 51.8561 17.0763 50.5255C14.0409 49.2415 11.3089 47.3973 8.96228 45.0512C6.61563 42.7051 4.77099 39.9737 3.48675 36.9389C2.15581 33.7874 1.47867 30.4492 1.47867 27.0058C1.47867 23.5625 2.15581 20.2126 3.48675 17.0727C4.77099 14.0379 6.61563 11.3066 8.96228 8.96049C11.3089 6.61437 14.0409 4.77015 17.0763 3.4862C20.2286 2.15556 23.5676 1.47856 27.0117 1.47856C30.4558 1.47856 33.8065 2.15556 36.947 3.4862C39.9825 4.77015 42.7144 6.61437 45.0611 8.96049C47.4077 11.3066 49.2524 14.0379 50.5366 17.0727C51.8675 20.2242 52.5447 23.5625 52.5447 27.0058C52.5447 30.4492 51.8675 33.7874 50.5366 36.9389Z" fill="white" stroke="white" stroke-miterlimit="10"/>
<path d="M74.291 24.0859C75.5215 24.0859 76.4502 24.3584 77.0771 24.9033C77.71 25.4482 78.0264 26.2979 78.0264 27.4521V34H76.5586L76.1631 32.6201H76.0928C75.8174 32.9717 75.5332 33.2617 75.2402 33.4902C74.9473 33.7188 74.6074 33.8887 74.2207 34C73.8398 34.1172 73.374 34.1758 72.8232 34.1758C72.2432 34.1758 71.7246 34.0703 71.2676 33.8594C70.8105 33.6426 70.4502 33.3145 70.1865 32.875C69.9229 32.4355 69.791 31.8789 69.791 31.2051C69.791 30.2031 70.1631 29.4502 70.9072 28.9463C71.6572 28.4424 72.7881 28.1641 74.2998 28.1113L75.9873 28.0498V27.54C75.9873 26.8662 75.8291 26.3857 75.5127 26.0986C75.2021 25.8115 74.7627 25.668 74.1943 25.668C73.708 25.668 73.2363 25.7383 72.7793 25.8789C72.3223 26.0195 71.877 26.1924 71.4434 26.3975L70.7754 24.9385C71.25 24.6865 71.7891 24.4814 72.3926 24.3232C73.002 24.165 73.6348 24.0859 74.291 24.0859ZM75.9785 29.3506L74.7217 29.3945C73.6904 29.4297 72.9668 29.6055 72.5508 29.9219C72.1348 30.2383 71.9268 30.6719 71.9268 31.2227C71.9268 31.7031 72.0703 32.0547 72.3574 32.2773C72.6445 32.4941 73.0225 32.6025 73.4912 32.6025C74.2061 32.6025 74.7979 32.4004 75.2666 31.9961C75.7412 31.5859 75.9785 30.9854 75.9785 30.1943V29.3506ZM84.8379 34.1758C83.918 34.1758 83.1211 33.9971 82.4473 33.6396C81.7734 33.2822 81.2549 32.7344 80.8916 31.9961C80.5283 31.2578 80.3467 30.3203 80.3467 29.1836C80.3467 28 80.5459 27.0332 80.9443 26.2832C81.3428 25.5332 81.8936 24.9795 82.5967 24.6221C83.3057 24.2646 84.1172 24.0859 85.0312 24.0859C85.6113 24.0859 86.1357 24.1445 86.6045 24.2617C87.0791 24.373 87.4805 24.5107 87.8086 24.6748L87.1934 26.3271C86.8359 26.1807 86.4697 26.0576 86.0947 25.958C85.7197 25.8584 85.3594 25.8086 85.0137 25.8086C84.4453 25.8086 83.9707 25.9346 83.5898 26.1865C83.2148 26.4385 82.9336 26.8135 82.7461 27.3115C82.5645 27.8096 82.4736 28.4277 82.4736 29.166C82.4736 29.8809 82.5674 30.4844 82.7549 30.9766C82.9424 31.4629 83.2207 31.832 83.5898 32.084C83.959 32.3301 84.4131 32.4531 84.9521 32.4531C85.4854 32.4531 85.9629 32.3887 86.3848 32.2598C86.8066 32.1309 87.2051 31.9639 87.5801 31.7588V33.5518C87.2109 33.7627 86.8154 33.918 86.3936 34.0176C85.9717 34.123 85.4531 34.1758 84.8379 34.1758ZM93.6797 24.0859C94.9102 24.0859 95.8389 24.3584 96.4658 24.9033C97.0986 25.4482 97.415 26.2979 97.415 27.4521V34H95.9473L95.5518 32.6201H95.4814C95.2061 32.9717 94.9219 33.2617 94.6289 33.4902C94.3359 33.7188 93.9961 33.8887 93.6094 34C93.2285 34.1172 92.7627 34.1758 92.2119 34.1758C91.6318 34.1758 91.1133 34.0703 90.6562 33.8594C90.1992 33.6426 89.8389 33.3145 89.5752 32.875C89.3115 32.4355 89.1797 31.8789 89.1797 31.2051C89.1797 30.2031 89.5518 29.4502 90.2959 28.9463C91.0459 28.4424 92.1768 28.1641 93.6885 28.1113L95.376 28.0498V27.54C95.376 26.8662 95.2178 26.3857 94.9014 26.0986C94.5908 25.8115 94.1514 25.668 93.583 25.668C93.0967 25.668 92.625 25.7383 92.168 25.8789C91.7109 26.0195 91.2656 26.1924 90.832 26.3975L90.1641 24.9385C90.6387 24.6865 91.1777 24.4814 91.7812 24.3232C92.3906 24.165 93.0234 24.0859 93.6797 24.0859ZM95.3672 29.3506L94.1104 29.3945C93.0791 29.4297 92.3555 29.6055 91.9395 29.9219C91.5234 30.2383 91.3154 30.6719 91.3154 31.2227C91.3154 31.7031 91.459 32.0547 91.7461 32.2773C92.0332 32.4941 92.4111 32.6025 92.8799 32.6025C93.5947 32.6025 94.1865 32.4004 94.6553 31.9961C95.1299 31.5859 95.3672 30.9854 95.3672 30.1943V29.3506ZM103.576 34.1758C102.416 34.1758 101.484 33.7539 100.781 32.9102C100.084 32.0605 99.7354 30.8096 99.7354 29.1572C99.7354 27.4873 100.09 26.2246 100.799 25.3691C101.514 24.5137 102.454 24.0859 103.62 24.0859C104.112 24.0859 104.543 24.1533 104.912 24.2881C105.281 24.417 105.598 24.5928 105.861 24.8154C106.131 25.0381 106.359 25.2871 106.547 25.5625H106.644C106.614 25.3809 106.579 25.1201 106.538 24.7803C106.503 24.4346 106.485 24.1152 106.485 23.8223V20.3242H108.56V34H106.942L106.573 32.6729H106.485C106.31 32.9541 106.087 33.209 105.817 33.4375C105.554 33.6602 105.237 33.8389 104.868 33.9736C104.505 34.1084 104.074 34.1758 103.576 34.1758ZM104.156 32.4971C105.041 32.4971 105.665 32.2422 106.028 31.7324C106.392 31.2227 106.579 30.458 106.591 29.4385V29.166C106.591 28.0762 106.415 27.2412 106.063 26.6611C105.712 26.0752 105.07 25.7822 104.139 25.7822C103.395 25.7822 102.826 26.084 102.434 26.6875C102.047 27.2852 101.854 28.1201 101.854 29.1924C101.854 30.2646 102.047 31.085 102.434 31.6533C102.826 32.2158 103.4 32.4971 104.156 32.4971ZM115.397 24.0859C116.265 24.0859 117.009 24.2646 117.63 24.6221C118.251 24.9795 118.729 25.4863 119.062 26.1426C119.396 26.7988 119.563 27.584 119.563 28.498V29.6055H113.068C113.092 30.5488 113.344 31.2754 113.824 31.7852C114.311 32.2949 114.99 32.5498 115.863 32.5498C116.484 32.5498 117.041 32.4912 117.533 32.374C118.031 32.251 118.544 32.0723 119.071 31.8379V33.5166C118.585 33.7451 118.09 33.9121 117.586 34.0176C117.082 34.123 116.479 34.1758 115.775 34.1758C114.82 34.1758 113.979 33.9912 113.253 33.6221C112.532 33.2471 111.967 32.6904 111.557 31.9521C111.152 31.2139 110.95 30.2969 110.95 29.2012C110.95 28.1113 111.135 27.1855 111.504 26.4238C111.873 25.6621 112.392 25.082 113.06 24.6836C113.728 24.2852 114.507 24.0859 115.397 24.0859ZM115.397 25.6416C114.747 25.6416 114.22 25.8525 113.815 26.2744C113.417 26.6963 113.183 27.3145 113.112 28.1289H117.542C117.536 27.6426 117.454 27.2119 117.296 26.8369C117.144 26.4619 116.909 26.1689 116.593 25.958C116.282 25.7471 115.884 25.6416 115.397 25.6416ZM132.888 24.0859C133.978 24.0859 134.798 24.3672 135.349 24.9297C135.905 25.4922 136.184 26.3945 136.184 27.6367V34H134.118V28.0059C134.118 27.2676 133.975 26.7109 133.688 26.3359C133.4 25.9609 132.964 25.7734 132.378 25.7734C131.558 25.7734 130.966 26.0371 130.603 26.5645C130.245 27.0859 130.066 27.8447 130.066 28.8408V34H128.001V28.0059C128.001 27.5137 127.937 27.1035 127.808 26.7754C127.685 26.4414 127.494 26.1924 127.236 26.0283C126.979 25.8584 126.653 25.7734 126.261 25.7734C125.692 25.7734 125.238 25.9023 124.898 26.1602C124.564 26.418 124.324 26.7988 124.178 27.3027C124.031 27.8008 123.958 28.4131 123.958 29.1396V34H121.893V24.2705H123.501L123.791 25.5801H123.905C124.104 25.2402 124.351 24.9619 124.644 24.7451C124.942 24.5225 125.273 24.3584 125.637 24.2529C126 24.1416 126.378 24.0859 126.771 24.0859C127.497 24.0859 128.109 24.2148 128.607 24.4727C129.105 24.7246 129.478 25.1113 129.724 25.6328H129.882C130.187 25.1055 130.611 24.7158 131.156 24.4639C131.701 24.2119 132.278 24.0859 132.888 24.0859ZM137.599 24.2705H139.849L141.844 29.8252C141.932 30.0771 142.011 30.3262 142.081 30.5723C142.157 30.8125 142.222 31.0498 142.274 31.2842C142.333 31.5186 142.38 31.7529 142.415 31.9873H142.468C142.526 31.6826 142.608 31.3428 142.714 30.9678C142.825 30.5869 142.948 30.2061 143.083 29.8252L144.999 24.2705H147.223L143.048 35.3359C142.808 35.9688 142.512 36.5078 142.16 36.9531C141.814 37.4043 141.404 37.7441 140.93 37.9727C140.455 38.207 139.913 38.3242 139.304 38.3242C139.011 38.3242 138.756 38.3066 138.539 38.2715C138.322 38.2422 138.138 38.21 137.985 38.1748V36.5225C138.108 36.5518 138.264 36.5781 138.451 36.6016C138.639 36.625 138.832 36.6367 139.031 36.6367C139.4 36.6367 139.72 36.5635 139.989 36.417C140.259 36.2705 140.487 36.0625 140.675 35.793C140.862 35.5293 141.018 35.2275 141.141 34.8877L141.483 33.9736L137.599 24.2705ZM148.4 32.9102C148.4 32.4297 148.523 32.0928 148.77 31.8994C149.021 31.7002 149.326 31.6006 149.684 31.6006C150.041 31.6006 150.346 31.7002 150.598 31.8994C150.855 32.0928 150.984 32.4297 150.984 32.9102C150.984 33.3789 150.855 33.7188 150.598 33.9297C150.346 34.1348 150.041 34.2373 149.684 34.2373C149.326 34.2373 149.021 34.1348 148.77 33.9297C148.523 33.7188 148.4 33.3789 148.4 32.9102ZM161.812 34L160.556 30.4316H155.643L154.386 34H152.162L156.943 21.0977H159.281L164.054 34H161.812ZM160.011 28.6211L158.789 25.1055C158.742 24.9531 158.675 24.7393 158.587 24.4639C158.499 24.1826 158.411 23.8984 158.323 23.6113C158.235 23.3184 158.162 23.0723 158.104 22.873C158.045 23.1133 157.972 23.3828 157.884 23.6816C157.802 23.9746 157.72 24.25 157.638 24.5078C157.562 24.7656 157.503 24.9648 157.462 25.1055L156.231 28.6211H160.011ZM167.842 34H165.75V21.1504H173.01V22.9258H167.842V26.9336H172.676V28.7002H167.842V34ZM178.96 21.1504C180.067 21.1504 180.981 21.2852 181.702 21.5547C182.429 21.8242 182.968 22.2344 183.319 22.7852C183.677 23.3359 183.855 24.0361 183.855 24.8857C183.855 25.5186 183.738 26.0576 183.504 26.5029C183.27 26.9482 182.962 27.3174 182.581 27.6104C182.2 27.9033 181.793 28.1377 181.359 28.3135L185.007 34H182.625L179.522 28.8496H177.457V34H175.348V21.1504H178.96ZM178.819 22.9082H177.457V27.1094H178.916C179.895 27.1094 180.604 26.9277 181.043 26.5645C181.488 26.2012 181.711 25.665 181.711 24.9561C181.711 24.2119 181.474 23.6846 180.999 23.374C180.53 23.0635 179.804 22.9082 178.819 22.9082ZM186.844 34V21.1504H188.953V34H186.844ZM197.821 22.7588C197.206 22.7588 196.655 22.8701 196.169 23.0928C195.688 23.3154 195.281 23.6377 194.947 24.0596C194.613 24.4756 194.358 24.9824 194.183 25.5801C194.007 26.1719 193.919 26.8398 193.919 27.584C193.919 28.5801 194.06 29.4385 194.341 30.1592C194.622 30.874 195.05 31.4248 195.624 31.8115C196.198 32.1924 196.925 32.3828 197.804 32.3828C198.349 32.3828 198.879 32.3301 199.395 32.2246C199.91 32.1191 200.443 31.9756 200.994 31.7939V33.5869C200.473 33.792 199.945 33.9414 199.412 34.0352C198.879 34.1289 198.264 34.1758 197.566 34.1758C196.254 34.1758 195.164 33.9033 194.297 33.3584C193.436 32.8135 192.791 32.0459 192.363 31.0557C191.941 30.0654 191.73 28.9053 191.73 27.5752C191.73 26.6025 191.865 25.7119 192.135 24.9033C192.404 24.0947 192.797 23.3975 193.312 22.8115C193.828 22.2197 194.464 21.7656 195.22 21.4492C195.981 21.127 196.852 20.9658 197.83 20.9658C198.475 20.9658 199.107 21.0391 199.729 21.1855C200.355 21.3262 200.936 21.5283 201.469 21.792L200.73 23.5322C200.285 23.3213 199.819 23.1396 199.333 22.9873C198.847 22.835 198.343 22.7588 197.821 22.7588ZM211.717 34L210.46 30.4316H205.547L204.29 34H202.066L206.848 21.0977H209.186L213.958 34H211.717ZM209.915 28.6211L208.693 25.1055C208.646 24.9531 208.579 24.7393 208.491 24.4639C208.403 24.1826 208.315 23.8984 208.228 23.6113C208.14 23.3184 208.066 23.0723 208.008 22.873C207.949 23.1133 207.876 23.3828 207.788 23.6816C207.706 23.9746 207.624 24.25 207.542 24.5078C207.466 24.7656 207.407 24.9648 207.366 25.1055L206.136 28.6211H209.915Z" fill="white"/>
</svg>
