<svg width="25" height="24" viewBox="0 0 25 24" fill="none" xmlns="http://www.w3.org/2000/svg">
<g clip-path="url(#clip0_873_5161)">
<path d="M12.6674 0.960022C6.57602 0.960022 1.62744 5.9086 1.62744 12C1.62744 13.958 2.16441 15.7852 3.05994 17.3803L1.64525 22.4306C1.62265 22.5115 1.62163 22.5968 1.64229 22.6781C1.66295 22.7595 1.70457 22.834 1.763 22.8942C1.82143 22.9544 1.89463 22.9983 1.9753 23.0214C2.05597 23.0445 2.14129 23.0461 2.22275 23.026L7.48869 21.721C9.03606 22.547 10.7919 23.04 12.6674 23.04C18.7589 23.04 23.7074 18.0914 23.7074 12C23.7074 5.9086 18.7589 0.960022 12.6674 0.960022ZM12.6674 1.92002C18.24 1.92002 22.7474 6.42745 22.7474 12C22.7474 17.5726 18.24 22.08 12.6674 22.08C10.8809 22.08 9.20766 21.6142 7.75307 20.8003C7.64668 20.7409 7.52167 20.7241 7.40338 20.7535L2.79182 21.8963L4.02838 17.4844C4.04607 17.422 4.05096 17.3568 4.04274 17.2925C4.03452 17.2282 4.01337 17.1662 3.98057 17.1103C3.09657 15.6113 2.58744 13.8673 2.58744 12C2.58744 6.42745 7.09486 1.92002 12.6674 1.92002ZM9.52869 5.36721C9.22099 5.36721 8.78156 5.48168 8.42057 5.87065C8.20374 6.10427 6.42744 7.85739 6.42744 9.40502C6.42744 11.0186 7.54651 12.4108 7.68182 12.5897L7.68275 12.5906C7.66992 12.5738 7.8545 12.8411 8.10088 13.1616C8.34726 13.4821 8.6918 13.903 9.12463 14.3588C9.99029 15.2702 11.2074 16.3236 12.7181 16.9678C13.4137 17.2641 13.9626 17.4429 14.3784 17.5735C15.149 17.8154 15.8508 17.7786 16.3781 17.701C17.1802 17.4568 17.5932 17.1534 18.1494 16.7513C18.6888 16.2854 19.2311 15.7481 19.4223 15.4067C19.5553 15.0386 19.7455 14.4774 19.7699 14.1975C19.7822 14.0576 19.7837 13.9341 19.7746 13.8197C19.7655 13.7054 19.7753 13.6178 19.6687 13.4428C19.4452 13.0759 19.1921 13.0663 18.9281 12.9356C18.7813 12.863 18.3636 12.659 17.9446 12.4594C17.5261 12.26 17.1637 12.0833 16.9406 12.0038C16.7996 11.953 16.6274 11.88 16.379 11.9081C16.1306 11.9363 15.8853 12.1155 15.7424 12.3272C15.6071 12.5279 15.062 13.1712 14.8959 13.3603C14.8937 13.359 14.9081 13.3656 14.8424 13.3331C14.6369 13.2314 14.3856 13.145 14.0137 12.9488C13.6418 12.7526 13.1765 12.4629 12.6674 12.0141C11.9097 11.347 11.3789 10.5085 11.2115 10.2272C11.2228 10.2138 11.2102 10.23 11.234 10.2066L11.2349 10.2056C11.4061 10.0371 11.5577 9.83578 11.6859 9.68815C11.8676 9.47882 11.9478 9.2943 12.0346 9.1219C12.2078 8.7783 12.1114 8.40021 12.0112 8.20127C12.0181 8.21503 11.957 8.07928 11.8912 7.92377C11.8252 7.76782 11.7411 7.56563 11.6512 7.35002C11.4715 6.91881 11.2708 6.43517 11.1515 6.1519C11.0109 5.81824 10.8208 5.57693 10.5721 5.46096C10.3235 5.34499 10.1038 5.37796 10.0949 5.37752C9.91751 5.36934 9.72187 5.36721 9.52869 5.36721ZM9.60986 6.33096C9.79492 6.33096 9.8962 6.32947 10.049 6.33658C10.0949 6.33872 10.1481 6.32887 10.1662 6.33096C10.2148 6.33658 10.2281 6.43294 10.2665 6.52408C10.3833 6.80145 10.585 7.28685 10.7653 7.7194C10.8554 7.93567 10.9398 8.13864 11.0071 8.29783C11.0745 8.45703 11.111 8.54591 11.1534 8.63065L11.1543 8.63252C11.1959 8.71448 11.1922 8.66201 11.1778 8.69065C11.0765 8.89168 11.0627 8.94105 10.9603 9.05908C10.8042 9.23881 10.6451 9.43924 10.5609 9.52221C10.4872 9.5946 10.3542 9.70739 10.2712 9.92815C10.188 10.1492 10.2268 10.4526 10.3603 10.6791C10.5379 10.9806 11.1232 11.9333 12.0328 12.7341C12.6056 13.2391 13.1392 13.5733 13.5656 13.7981C13.9919 14.023 14.3391 14.1544 14.4168 14.1928C14.6013 14.2841 14.803 14.3551 15.0374 14.3269C15.2719 14.2987 15.4741 14.1565 15.6028 14.011L15.6037 14.01C15.775 13.8159 16.2839 13.2348 16.5281 12.8766C16.5384 12.8802 16.535 12.8774 16.6162 12.9066L16.6171 12.9075C16.6542 12.9207 17.1183 13.1285 17.5321 13.3256C17.9459 13.5228 18.366 13.7278 18.5024 13.7953C18.6994 13.8928 18.7925 13.9563 18.8165 13.9566C18.8181 13.9988 18.8198 14.0446 18.8137 14.1141C18.7969 14.3069 18.6389 14.8137 18.358 15.2664C18.2122 15.5012 17.6957 15.8772 17.4835 16.0437C17.2713 16.2102 17.0041 16.5358 16.2374 16.7513C15.7874 16.8176 15.253 16.8418 14.6662 16.6575C14.2593 16.5298 13.7519 16.3645 13.0949 16.0847C11.7626 15.5165 10.6301 14.5495 9.82119 13.6978C9.41672 13.272 9.09267 12.8756 8.86213 12.5756C8.63202 12.2763 8.53154 12.1205 8.44775 12.0103L8.44682 12.0094C8.2981 11.8127 7.38744 10.546 7.38744 9.40502C7.38744 8.19746 8.82113 6.8511 9.12463 6.52408C9.28396 6.35241 9.53932 6.33096 9.60986 6.33096Z" fill="white" stroke="white" stroke-width="0.7" stroke-linejoin="round"/>
</g>
<defs>
<clipPath id="clip0_873_5161">
<rect width="24" height="24" fill="white" transform="translate(0.666992)"/>
</clipPath>
</defs>
</svg>
