<svg width="151" height="150" viewBox="0 0 151 150" fill="none" xmlns="http://www.w3.org/2000/svg">
<path d="M85.6718 135.329C85.3662 135.329 85.0841 135.211 84.849 135.001L64.5605 114.775C64.3019 114.517 64.1844 114.165 64.2314 113.814C64.2784 113.462 64.49 113.158 64.7956 112.97C78.1959 105.166 90.068 97.1504 100.342 89.0413C100.459 88.8773 100.647 88.7367 100.812 88.6663C136.287 60.519 152.65 30.9654 147.431 3.33357C147.407 3.14608 147.242 3.00546 147.054 2.98202C120.889 -1.21313 92.3955 14.5597 64.6075 47.9804C64.5135 48.1678 64.396 48.3319 64.2079 48.4725C55.2979 59.2299 46.4819 71.8154 37.8305 86.1352C37.6425 86.4399 37.3368 86.6508 36.9842 86.6742C36.6316 86.7211 36.2789 86.6039 36.0203 86.3461L16.8133 67.1984C15.4027 65.7922 15.4027 63.5188 16.8133 62.1126L24.2657 54.6832C25.7468 53.2067 27.8861 52.6442 30.0255 53.1364C41.2864 55.8316 52.2652 53.6755 62.6798 46.7148C91.0789 12.4973 120.395 -3.6271 147.431 0.685235C148.583 0.872728 149.499 1.76332 149.711 2.88828C155.095 31.4107 138.38 61.7845 102.152 90.5178C101.141 92.4162 95.0755 104.392 97.7556 115.056C97.8261 115.408 99.2601 122.626 95.2166 126.259L86.4711 134.977C86.2596 135.235 85.9774 135.329 85.6718 135.329ZM67.2641 114.212L85.6718 132.563L93.6414 124.618C96.7447 121.829 95.5222 115.665 95.5222 115.595C93.4534 107.416 96.0394 98.7675 98.1552 93.6583C88.9866 100.642 78.6896 107.486 67.2641 114.212ZM28.5209 55.2691C27.5335 55.2691 26.5931 55.6441 25.9114 56.3238L18.4589 63.7532C17.9652 64.2454 17.9652 65.0657 18.4589 65.5813L36.6316 83.6978C43.8254 71.8857 51.1603 61.2455 58.5657 51.824C49.209 56.5816 39.4527 57.8003 29.4848 55.4098C29.1556 55.2926 28.8265 55.2691 28.5209 55.2691Z" fill="#0C1A81"/>
<path d="M65.383 115.126C65.0774 115.126 64.7953 115.009 64.5602 114.798L36.0435 86.3461C35.5968 85.9008 35.5968 85.1743 36.0435 84.7056C36.4902 84.2603 37.219 84.2603 37.6891 84.7056L66.2293 113.158C66.676 113.603 66.676 114.329 66.2293 114.798C65.9707 115.009 65.6886 115.126 65.383 115.126Z" fill="#0C1A81"/>
<path d="M144.962 37.7385C144.656 37.7385 144.374 37.6214 144.139 37.4104L113.718 7.05999C113.272 6.6147 113.272 5.88816 113.718 5.41943C114.165 4.97413 114.894 4.97413 115.364 5.41943L145.808 35.7699C146.255 36.2152 146.255 36.9417 145.808 37.4104C145.573 37.6214 145.268 37.7385 144.962 37.7385Z" fill="#0C1A81"/>
<path d="M104.362 64.7376C99.5421 64.7376 94.7462 62.9095 91.0788 59.2534C87.5289 55.7144 85.5776 51.0037 85.5776 46.0117C85.5776 41.0197 87.5289 36.3089 91.0788 32.77C98.4137 25.4577 110.333 25.4577 117.644 32.77C124.979 40.0822 124.979 51.9646 117.644 59.2534C113.977 62.9329 109.157 64.7376 104.362 64.7376ZM104.362 29.606C100.153 29.606 95.9217 31.1997 92.7009 34.4105C89.5977 37.5042 87.8815 41.629 87.8815 46.0117C87.8815 50.3943 89.5977 54.5192 92.7009 57.6128C99.1189 64.011 109.581 64.011 115.999 57.6128C122.417 51.2146 122.417 40.7853 115.999 34.3871C112.801 31.2232 108.57 29.606 104.362 29.606Z" fill="#0C1A81"/>
<path d="M92.466 128.579C92.1604 128.579 91.8783 128.462 91.6432 128.251L73.0474 109.712C72.6007 109.267 72.6007 108.541 73.0474 108.072C73.4941 107.627 74.2229 107.627 74.6931 108.072L93.2888 126.61C93.7355 127.056 93.7355 127.782 93.2888 128.251C93.0773 128.462 92.7716 128.579 92.466 128.579Z" fill="#0C1A81"/>
<path d="M42.0386 78.2839C41.7329 78.2839 41.4508 78.1667 41.2157 77.9558L21.8912 58.6909C21.4445 58.2456 21.4445 57.5191 21.8912 57.0503C22.3378 56.5816 23.0666 56.605 23.5368 57.0503L42.8614 76.3153C43.3081 76.7605 43.3081 77.4871 42.8614 77.9558C42.6263 78.1902 42.3442 78.2839 42.0386 78.2839Z" fill="#0C1A81"/>
<path d="M57.2959 118.314C56.9903 118.314 56.6846 118.196 56.4731 117.986L32.188 93.7521C31.7414 93.3068 31.7414 92.5802 32.188 92.1115L37.8302 86.4867C38.2769 86.0414 39.0057 86.0414 39.4759 86.4867C39.9226 86.932 39.9226 87.6586 39.4759 88.1273L34.6565 92.9318L57.3194 115.525L62.1388 110.72C62.5855 110.275 63.3142 110.275 63.7844 110.72C64.2311 111.165 64.2311 111.892 63.7844 112.361L58.1422 117.986C57.9071 118.196 57.6015 118.314 57.2959 118.314Z" fill="#0C1A81"/>
<path d="M1.86132 150C1.5557 150 1.27359 149.883 1.03849 149.672C0.779891 149.414 0.662345 149.039 0.709364 148.664C6.37509 114.704 18.4353 97.5957 37.5248 96.4004C38.1596 96.3536 38.7003 96.8457 38.7473 97.4785C38.7943 98.1113 38.3006 98.6504 37.6659 98.6972C20.081 99.7987 8.82005 115.759 3.24836 147.445C35.0328 141.891 51.0191 130.665 52.1476 113.134C52.1946 112.501 52.7588 111.986 53.37 112.056C54.0048 112.103 54.4985 112.642 54.4515 113.275C53.229 132.329 36.0908 144.328 2.02588 149.977C2.00237 150 1.93184 150 1.86132 150Z" fill="#0C1A81"/>
<path d="M53.7931 103.572C53.4875 103.572 53.2054 103.455 52.9703 103.244C52.5236 102.799 52.5236 102.072 52.9703 101.603L84.9193 69.753C86.0243 68.6515 86.0243 66.8703 84.9193 65.7922C83.8614 64.7375 82.0042 64.7375 80.9463 65.7922L48.9973 97.6191C48.5506 98.0644 47.8218 98.0644 47.3516 97.6191C46.9049 97.1738 46.9049 96.4473 47.3516 95.9786L79.3006 64.1282C81.2284 62.2064 84.6137 62.2064 86.565 64.1282C88.5633 66.1203 88.5633 69.378 86.565 71.3701L54.616 103.22C54.3809 103.455 54.0988 103.572 53.7931 103.572Z" fill="#0C1A81"/>
</svg>
