<svg width="78" height="72" viewBox="0 0 78 72" fill="none" xmlns="http://www.w3.org/2000/svg">
<g clip-path="url(#clip0_796_3358)">
<path d="M20.2111 71C14.0275 71 9.31675 68.9526 5.94406 64.9282C2.67103 60.6961 1 55.3004 1 48.6667C1 41.5674 2.68354 33.8472 6.08819 25.4957C9.53426 17.3988 14.4502 9.35326 20.8482 1.36017L28 6.44121C25.1531 10.3189 22.4022 15.5369 19.7359 22.063C16.8526 28.9717 15.4642 35.4083 15.6184 41.3592L15.6532 42.7046L16.9313 42.283C18.1548 41.8794 19.6169 41.6667 21.334 41.6667C25.4677 41.6667 28.9002 42.8597 31.6941 45.2097L31.7055 45.2193L31.7171 45.2285C34.4071 47.358 35.8292 50.6567 35.8292 55.3333C35.8292 59.8285 34.3486 63.5757 31.3935 66.6391L31.3927 66.6399C28.6148 69.5263 24.9226 71 20.2111 71ZM61.382 71C55.1984 71 50.4876 68.9526 47.115 64.9283C43.8419 60.6961 42.1708 55.3004 42.1708 48.6667C42.1708 41.5674 43.8544 33.8471 47.259 25.4956C50.7051 17.3987 55.621 9.35324 62.019 1.36017L69.1709 6.44121C66.3239 10.3188 63.573 15.5368 60.9068 22.0627C58.0235 28.9715 56.635 35.4082 56.7892 41.3592L56.8241 42.7046L58.1021 42.283C59.3257 41.8794 60.7877 41.6667 62.5048 41.6667C66.6385 41.6667 70.071 42.8597 72.8649 45.2097L72.8763 45.2193L72.8879 45.2285C75.5779 47.358 77 50.6567 77 55.3333C77 59.8285 75.5194 63.5757 72.5644 66.6391L72.5636 66.6399C69.7856 69.5263 66.0934 71 61.382 71Z" stroke="#ED1C24" stroke-width="2"/>
</g>
<defs>
<clipPath id="clip0_796_3358">
<rect width="78" height="72" fill="white"/>
</clipPath>
</defs>
</svg>
