<svg width="136" height="60" viewBox="0 0 136 60" fill="none" xmlns="http://www.w3.org/2000/svg">
<g clip-path="url(#clip0_665_5390)">
<g clip-path="url(#clip1_665_5390)">
<path d="M135.088 39.2924H130.964V41.6192H132.431V43.1982H129.033V49.5442H132.895V47.1795H131.651V45.5553H135.073V45.4344V39.3906L135.088 39.2924Z" fill="white"/>
<path d="M101.231 11.8534H84.4258V10.1461H119.951V4.28356H88.2872V2.32687H103.084V0H85.2599V6.36868H116.924V8.0685H81.3984V13.9234H101.231V11.8534Z" fill="white"/>
<path d="M82.3879 19.4233V17.7688H125.945V11.8534H103.255V13.9234H122.856V15.6534H79.291V21.4857H80.9977H132.896V23.1629H93.3389V29.1009H114.361V26.9932H96.4358V25.2556H135.985V19.4233H82.3879Z" fill="white"/>
<path d="M112.346 42.1632V44.2106H123.32V45.9331H102.916V51.8485H117.589V53.503H108.245V59.713H115.906V57.3559H111.326V55.5805H120.702V49.7482H117.613H106.028V47.988H126.432V42.1179L112.346 42.1632Z" fill="white"/>
<path d="M116.384 26.9932V29.1009H129.204V30.763H102.498V36.5953H103.633H122.346V38.2951H104.637V44.2105H110.329V42.1405H107.726V40.4331H125.443V34.5706H105.587V32.8783H132.293V26.9932H116.384Z" fill="white"/>
<path d="M2.51758 32.6441C2.51758 27.4918 5.14337 24.621 9.25966 24.621C10.4722 24.5371 11.6804 24.834 12.7083 25.4686C13.7363 26.1032 14.5302 27.0423 14.9746 28.1491L12.4183 29.4636C12.2401 28.7828 11.8249 28.1841 11.2442 27.7705C10.6634 27.3568 9.95351 27.1541 9.2365 27.1972C7.0432 27.1972 5.6299 28.7534 5.6299 31.3674V33.7774C5.6299 36.4064 7.0432 37.8947 9.2365 37.8947C9.99437 37.9055 10.7351 37.6737 11.3457 37.2345C11.9564 36.7954 12.4036 36.1729 12.6191 35.4621L15.0209 36.8446C14.548 37.9515 13.7405 38.8906 12.7066 39.536C11.6728 40.1815 10.462 40.5024 9.2365 40.4558C5.14337 40.4331 2.51758 37.7889 2.51758 32.6441Z" fill="white"/>
<path d="M17.0977 32.5308C17.0977 27.3634 19.8084 24.621 23.9092 24.621C28.0101 24.621 30.7208 27.3634 30.7208 32.5308C30.7208 37.6983 28.0333 40.4331 23.9092 40.4331C19.7852 40.4331 17.0977 37.7058 17.0977 32.5308ZM27.5853 33.7169V31.3674C27.5853 28.7534 26.1489 27.1972 23.9092 27.1972C21.6696 27.1972 20.2331 28.7534 20.2331 31.3674V33.732C20.2331 36.3384 21.6696 37.8947 23.9092 37.8947C26.1489 37.8947 27.5853 36.3233 27.5853 33.7169Z" fill="white"/>
<path d="M34.2129 24.8854H39.8969C43.9746 24.8854 46.6467 27.4464 46.6467 32.5308C46.6467 37.6152 43.9746 40.1838 39.8969 40.1838H34.2129V24.8854ZM39.8969 37.6152C42.0979 37.6152 43.5035 36.346 43.5035 33.7396V31.3674C43.5035 28.761 42.0979 27.4842 39.8969 27.4842H37.1321V37.6529L39.8969 37.6152Z" fill="white"/>
<path d="M50.1367 40.1838V24.8854H60.439V27.4464H53.0868V31.1558H59.5895V33.7169H53.0868V37.6152H60.439V40.1838H50.1367Z" fill="white"/>
<path d="M10.9124 59.7355L9.79261 56.0941H4.57193L3.45213 59.7355H0L5.15888 44.4371H9.36784L14.4495 59.7355H10.9124ZM7.21317 47.4666H7.10504L5.38285 53.2762H8.96626L7.21317 47.4666Z" fill="white"/>
<path d="M18.8594 59.7355V44.4371H29.2312V47.3986H22.2806V50.5338H28.2195V53.4651H22.2806V59.7355H18.8594Z" fill="white"/>
<path d="M37.6109 59.7355H34.2051V44.4371H41.6191C44.5074 44.4371 46.3455 46.4089 46.3455 49.3251C46.3455 51.3875 45.4033 53.0269 43.5034 53.7295L46.5926 59.7733H42.8084L40.0745 54.1601H37.634L37.6109 59.7355ZM41.1943 51.3195C41.4077 51.3456 41.6244 51.3252 41.8288 51.2598C42.0332 51.1944 42.2203 51.0857 42.3767 50.9413C42.5332 50.7969 42.655 50.6205 42.7336 50.4247C42.8123 50.2289 42.8457 50.0185 42.8316 49.8086V48.8416C42.8457 48.6316 42.8123 48.4213 42.7336 48.2254C42.655 48.0296 42.5332 47.8532 42.3767 47.7089C42.2203 47.5645 42.0332 47.4557 41.8288 47.3903C41.6244 47.3249 41.4077 47.3045 41.1943 47.3306H37.6109V51.3195H41.1943Z" fill="white"/>
<path d="M50.9316 59.7355V57.0536H52.9473V47.0889H50.9316V44.4371H58.3688V47.0889H56.3531V57.0536H58.3688V59.7053L50.9316 59.7355Z" fill="white"/>
<path d="M62.8496 52.1959C62.8496 47.0284 65.5603 44.1727 69.8002 44.1727C72.6654 44.1727 74.5034 45.3135 75.6464 47.7688L72.7117 49.2798C72.5701 48.6417 72.1973 48.0754 71.6622 47.6852C71.1271 47.295 70.4657 47.1073 69.8002 47.1569C67.8077 47.1569 66.4871 48.4714 66.4871 50.8814V53.3367C66.4871 55.7466 67.8077 57.0612 69.8002 57.0612C70.497 57.0632 71.1754 56.8431 71.7329 56.4341C72.2903 56.0252 72.6963 55.4497 72.8894 54.7947L75.6696 56.3737C75.1869 57.4996 74.3636 58.4541 73.3103 59.109C72.257 59.764 71.0241 60.0881 69.7771 60.0378C65.5604 60 62.8496 57.3709 62.8496 52.1959Z" fill="white"/>
<path d="M89.7252 59.7355L88.6054 56.0941H83.3847L82.2649 59.7355H78.8359L83.9948 44.4371H88.2038L93.2855 59.7355H89.7252ZM86.0259 47.4666H85.9178L84.1956 53.2762H87.779L86.0259 47.4666Z" fill="white"/>
<path d="M65.707 39.9647V32.2815H70.194V32.8783H66.3789V35.7869H69.9392V36.3686H66.3789V39.9798L65.707 39.9647Z" fill="white"/>
<path d="M72.4785 36.1193C72.4785 33.5205 73.691 32.1455 75.6989 32.1455C77.7069 32.1455 78.904 33.5205 78.904 36.1193C78.904 38.7182 77.6914 40.0931 75.6989 40.0931C73.7064 40.0931 72.4785 38.7182 72.4785 36.1193ZM78.1857 36.6028V35.6358C78.1857 33.8076 77.1972 32.7423 75.6989 32.7423C74.2007 32.7423 73.1967 33.8076 73.1967 35.6358V36.6028C73.1967 38.4311 74.193 39.5039 75.6989 39.5039C77.2049 39.5039 78.1857 38.4311 78.1857 36.6028Z" fill="white"/>
<path d="M82.5351 39.9647H81.8555V32.2815H84.9446C85.4757 32.3058 85.9797 32.518 86.3628 32.8786C86.7459 33.2392 86.9821 33.7236 87.0274 34.2418C87.0727 34.76 86.9241 35.2766 86.6092 35.6956C86.2943 36.1147 85.8345 36.4075 85.3154 36.5197L87.2461 39.9647H86.4738L84.5894 36.5575H82.5119L82.5351 39.9647ZM84.9446 35.9984C85.1264 36.0151 85.3098 35.9931 85.4821 35.9339C85.6544 35.8748 85.8116 35.7799 85.9429 35.6558C86.0742 35.5316 86.1765 35.3812 86.2428 35.2147C86.3091 35.0483 86.3379 34.8698 86.3271 34.6915V34.1626C86.3367 33.9849 86.3071 33.8073 86.2403 33.6418C86.1735 33.4762 86.071 33.3268 85.9398 33.2035C85.8087 33.0802 85.6519 32.9859 85.4802 32.9272C85.3084 32.8685 85.1258 32.8467 84.9446 32.8632H82.5351V35.9984H84.9446Z" fill="white"/>
</g>
</g>
<defs>
<clipPath id="clip0_665_5390">
<rect width="136" height="60" fill="white"/>
</clipPath>
<clipPath id="clip1_665_5390">
<rect width="136" height="60" fill="white"/>
</clipPath>
</defs>
</svg>
